# xmcd
#
# Track frame offsets: 
#        150
#        15451
#        27709
#        41096
#        50994
#        64991
#        78395
#        87160
#        96971
#        106959
#        117383
#        128997
#        139669
#        147777
#        159932
#        175265
#        186335
#        199781
#        211877
#        223388
#        238524
#        248271
#        273143
#        284728
#        300196
#        312491
#
# Disc length: 4435 seconds
#
# Revision: 2
# Processed by: cddbd v1.5.2PL0 Copyright (c) Steve Scherf et al.
# Submitted via: ExactAudioCopy v1.1
#
DISCID=8011511a
DTITLE=Long John Baldry - The UA Years 1964-1966 - Disc 2
DYEAR=2006
DGENRE=Pop
TTITLE0=You've Lost That Lovin' Feelin' (stereo)
TTITLE1=Only A Fool Breaks His Own Heart (stereo)
TTITLE2=Make It Easy On Yourself (stereo)
TTITLE3=Let Him Go (And Let Me Love You) (stereo)
TTITLE4=The Drifter (stereo)
TTITLE5=Cry Me A River (stereo)
TTITLE6=Stop Her On Sight (S.O.S.) (stereo)
TTITLE7=Turn On Your Lovelight (stereo)
TTITLE8=I Love Paris (stereo)
TTITLE9=Keep On Running (stereo)
TTITLE10=Ain't Nothing You Can Do (stereo)
TTITLE11=Bad Luck Soul (stereo)
TTITLE12=How Long Will It Last (mono)
TTITLE13=House Next Door (mono)
TTITLE14=Unseen Hands (mono)
TTITLE15=Turn On Your Lovelight (mono)
TTITLE16=The Drifter (mono)
TTITLE17=Only A Fool Breaks His Own Heart (mono)
TTITLE18=Cuckoo (mono)
TTITLE19=Bring Back My Baby To Me (mono)
TTITLE20=Let Him Go (And Let Me Love You) (mono)
TTITLE21=What's New (stereo)
TTITLE22=Cuckoo (stereo)
TTITLE23=Bring Back My Baby To Me (stereo)
TTITLE24=House Next Door (stereo)
TTITLE25=How Long Blues (stereo)
EXTD=
EXTT0=
EXTT1=
EXTT2=
EXTT3=
EXTT4=
EXTT5=
EXTT6=
EXTT7=
EXTT8=
EXTT9=
EXTT10=
EXTT11=
EXTT12=
EXTT13=
EXTT14=
EXTT15=
EXTT16=
EXTT17=
EXTT18=
EXTT19=
EXTT20=
EXTT21=
EXTT22=
EXTT23=
EXTT24=
EXTT25=
PLAYORDER=
